HIERARCHY
ROOT SpineBase
{
  OFFSET 0.000000 0.000000 0.000000
  CHANNELS 6 Xposition Yposition Zposition Zrotation Xrotation Yrotation
  JOINT SpineMid
  {
    OFFSET -0.000000 30.512418 0.000000
    CHANNELS 3 Zrotation Xrotation Yrotation
    JOINT SpineShoulder
    {
      OFFSET 0.094744 22.627059 -0.693397
      CHANNELS 3 Zrotation Xrotation Yrotation
      JOINT Neck
      {
        OFFSET -0.006776 7.482785 -0.586702
        CHANNELS 3 Zrotation Xrotation Yrotation
        JOINT Head
        {
          OFFSET -4.659221 12.655645 3.709705
          CHANNELS 3 Zrotation Xrotation Yrotation
          End Site
          {
            OFFSET 0 0 0
          }
        }
      }
      JOINT ShoulderLeft
      {
        OFFSET -13.226768 -7.808592 11.251367
        CHANNELS 3 Zrotation Xrotation Yrotation
        JOINT ElbowLeft
        {
          OFFSET -1.443048 -25.784848 -0.029364
          CHANNELS 3 Zrotation Xrotation Yrotation
          JOINT WristLeft
          {
            OFFSET -1.361531 -18.259888 -7.758841
            CHANNELS 3 Zrotation Xrotation Yrotation
            JOINT HandLeft
            {
              OFFSET 0.329027 -2.376034 -3.201278
              CHANNELS 3 Zrotation Xrotation Yrotation
              JOINT HandTipLeft
              {
                OFFSET -0.595100 -6.415553 -1.346616
                CHANNELS 3 Zrotation Xrotation Yrotation
                End Site
                {
                  OFFSET 0 0 0
                }
              }
              JOINT ThumbLeft
              {
                OFFSET -2.813035 1.635593 -1.351699
                CHANNELS 3 Zrotation Xrotation Yrotation
                End Site
                {
                  OFFSET 0 0 0
                }
              }
            }
          }
        }
      }
      JOINT ShoulderRight
      {
        OFFSET 11.300673 -3.249316 -10.570432
        CHANNELS 3 Zrotation Xrotation Yrotation
        JOINT ElbowRight
        {
          OFFSET 11.686591 -21.785217 -2.871948
          CHANNELS 3 Zrotation Xrotation Yrotation
          JOINT WristRight
          {
            OFFSET 2.393304 -22.138010 -4.018680
            CHANNELS 3 Zrotation Xrotation Yrotation
            JOINT HandRight
            {
              OFFSET -0.386061 -6.564154 -2.096419
              CHANNELS 3 Zrotation Xrotation Yrotation
              JOINT HandTipRight
              {
                OFFSET 1.060084 -6.099563 -0.568486
                CHANNELS 3 Zrotation Xrotation Yrotation
                End Site
                {
                  OFFSET 0 0 0
                }
              }
              JOINT ThumbRight
              {
                OFFSET -2.969598 0.211041 -0.200475
                CHANNELS 3 Zrotation Xrotation Yrotation
                End Site
                {
                  OFFSET 0 0 0
                }
              }
            }
          }
        }
      }
    }
  }
  JOINT HipLeft
  {
    OFFSET -5.181195 -0.039473 0.513675
    CHANNELS 3 Zrotation Xrotation Yrotation
    JOINT KneeLeft
    {
      OFFSET -2.126846 -29.304736 0.848226
      CHANNELS 3 Zrotation Xrotation Yrotation
      JOINT AnkleLeft
      {
        OFFSET -0.456507 -30.017853 5.141742
        CHANNELS 3 Zrotation Xrotation Yrotation
        JOINT FootLeft
        {
          OFFSET -5.964925 -1.599461 -10.077749
          CHANNELS 3 Zrotation Xrotation Yrotation
          End Site
          {
            OFFSET 0 0 0
          }
        }
      }
    }
  }
  JOINT HipRight
  {
    OFFSET 4.414880 1.886056 -7.400184
    CHANNELS 3 Zrotation Xrotation Yrotation
    JOINT KneeRight
    {
      OFFSET 8.858980 -27.004963 -2.746713
      CHANNELS 3 Zrotation Xrotation Yrotation
      JOINT AnkleRight
      {
        OFFSET 7.145784 -31.352156 4.853371
        CHANNELS 3 Zrotation Xrotation Yrotation
        JOINT FootRight
        {
          OFFSET -0.360888 -6.433288 -6.542297
          CHANNELS 3 Zrotation Xrotation Yrotation
          End Site
          {
            OFFSET 0 0 0
          }
        }
      }
    }
  }
}
MOTION
Frames: 6
Frame Time: 0.033333
39.402025 65.279733 348.963123 -3.517910 -1.296490 39.295383 -0.154551 -0.526866 -39.447494 -0.140577 0.111594 -0.172081 -4.143763 -4.088495 0.169633 0.000000 0.000000 0.000000 1.740290 -1.845276 0.418302 0.472651 -4.595804 0.894416 -4.548059 -19.750841 2.981472 19.591850 21.038641 -13.538115 0.000000 0.000000 0.000000 0.000000 0.000000 0.000000 -12.498192 5.515162 5.806322 -0.203550 -0.601843 -1.343755 6.222543 -13.429682 -0.702561 -10.813400 15.264643 2.989867 0.000000 0.000000 0.000000 0.000000 0.000000 0.000000 5.217083 -3.556336 -39.092877 -2.768440 0.752478 -0.116396 20.300344 -30.538161 5.040613 0.000000 0.000000 0.000000 5.922382 -1.978327 -39.164494 -1.781344 -1.912324 -0.214022 -0.149349 -2.573489 -0.043031 0.000000 0.000000 0.000000
39.752251 65.322290 348.839403 -4.562874 -2.004787 36.128547 -0.284277 -0.555999 -36.361806 -0.144682 0.102293 -0.229920 -7.842038 -6.976203 -0.054834 0.000000 0.000000 0.000000 1.330507 -3.246008 0.567927 2.209025 -3.556236 0.709453 -4.899804 -20.880555 2.964165 22.839695 25.518461 -16.401667 0.000000 0.000000 0.000000 0.000000 0.000000 0.000000 -11.344569 5.294897 5.340761 -1.369031 0.544620 -0.382130 6.720423 -9.751345 -0.618495 -12.859344 10.335212 2.134399 0.000000 0.000000 0.000000 0.000000 0.000000 0.000000 5.877576 -3.607502 -35.949144 -1.613640 1.010490 -0.032380 19.332849 -29.894566 5.083199 0.000000 0.000000 0.000000 6.547145 -0.957342 -35.909056 -0.999099 -2.112880 -0.416585 -0.054779 -1.744459 0.105190 0.000000 0.000000 0.000000
40.205455 65.315894 348.733628 -5.932540 -2.851194 32.839668 -0.332822 -0.558670 -33.189522 -0.115450 0.120412 -0.298288 -11.770843 -10.021583 -0.454217 0.000000 0.000000 0.000000 0.322409 -4.557737 0.690178 4.262705 -3.123916 0.691390 -3.696708 -21.043686 0.335067 21.123852 27.652460 -14.232508 0.000000 0.000000 0.000000 0.000000 0.000000 0.000000 -10.639684 5.014296 4.981157 -2.003073 1.343656 0.512622 8.361866 -6.053306 -0.698620 -15.184853 5.778123 1.211556 0.000000 0.000000 0.000000 0.000000 0.000000 0.000000 6.710887 -3.760778 -32.710734 -1.739181 2.366788 -0.186120 19.957084 -29.956701 5.437385 0.000000 0.000000 0.000000 7.123718 0.064736 -32.585323 0.107723 -1.921077 -0.519510 -0.106888 -1.006166 0.254265 0.000000 0.000000 0.000000
40.792998 65.267707 348.573228 -7.334768 -3.632971 29.512261 -0.307986 -0.542186 -29.993237 -0.066385 0.148517 -0.363805 -15.551578 -12.800117 -0.963550 0.000000 0.000000 0.000000 -1.179194 -5.747991 0.758584 6.683861 -2.357927 0.589127 -2.600031 -21.801260 -2.250833 18.732169 29.814962 -11.614852 0.000000 0.000000 0.000000 0.000000 0.000000 0.000000 -10.772332 4.675011 4.825763 -1.495460 1.949320 1.166495 9.163635 -4.028909 -0.684671 -17.477924 5.408253 1.534703 0.000000 0.000000 0.000000 0.000000 0.000000 0.000000 7.313957 -4.037328 -29.459897 -1.012208 3.525855 -0.254183 19.832074 -29.770032 5.501950 0.000000 0.000000 0.000000 7.290987 0.998059 -29.278967 1.482391 -0.851465 -0.417638 -0.086333 -1.091515 0.149649 0.000000 0.000000 0.000000
41.398499 65.186550 348.396640 -8.642485 -4.252120 26.656104 -0.156993 -0.509467 -27.262941 0.012287 0.188302 -0.416693 -18.958756 -15.164879 -1.532523 0.000000 0.000000 0.000000 -2.860631 -6.716677 0.768809 8.836198 -1.778116 0.567412 -1.052720 -22.107030 -5.533057 15.589866 31.395483 -7.965868 0.000000 0.000000 0.000000 0.000000 0.000000 0.000000 -10.960290 4.200734 4.617412 0.043803 2.288591 1.481958 7.878537 -3.571314 -0.305812 -16.703040 8.337573 2.492577 0.000000 0.000000 0.000000 0.000000 0.000000 0.000000 7.812185 -4.394248 -26.693398 -0.304641 4.641866 -0.333874 19.731447 -29.646780 5.462306 0.000000 0.000000 0.000000 7.085951 1.667094 -26.475992 3.063776 -0.456937 -0.445643 -0.000000 0.000000 0.000000 0.000000 0.000000 0.000000
42.041226 65.082890 348.161488 -9.607495 -4.542107 24.596432 0.031378 -0.471949 -25.288327 0.066859 0.212286 -0.451941 -21.804446 -16.954274 -2.024900 0.000000 0.000000 0.000000 -4.322283 -7.028426 0.756133 10.463078 -1.588042 0.619950 0.697113 -21.998159 -8.930583 11.031896 30.633741 -2.731107 0.000000 0.000000 0.000000 0.000000 0.000000 0.000000 -11.005165 3.658070 4.357015 1.876223 2.224540 1.459840 5.771007 -5.601531 0.105062 -14.281159 13.655418 3.841176 0.000000 0.000000 0.000000 0.000000 0.000000 0.000000 7.838611 -4.788880 -24.708125 0.492374 5.589601 -0.416499 19.716356 -29.680444 5.278641 0.000000 0.000000 0.000000 6.594119 1.835417 -24.504664 4.385284 0.081423 -0.417383 -0.000000 0.000000 0.000000 0.000000 0.000000 0.000000
